Coordinates
nRows=4
nColumns=38

# SIMM Motion File Header:
name Coordinates
datacolumns 38
datarows 4
otherdata 1
range 4.60299999999999980000 4.60599999999999990000

Units are S.I. units (second, meters, Newtons, ...)
Angles are in degrees.

endheader
time	pelvis_tilt	pelvis_list	pelvis_rotation	pelvis_tx	pelvis_ty	pelvis_tz	hip_flexion_r	hip_adduction_r	hip_rotation_r	knee_angle_r	ankle_angle_r	subtalar_angle_r	mtp_angle_r	hip_flexion_l	hip_adduction_l	hip_rotation_l	knee_angle_l	ankle_angle_l	subtalar_angle_l	mtp_angle_l	lumbar_extension	lumbar_bending	lumbar_rotation	arm_flex_r	arm_add_r	arm_rot_r	elbow_flex_r	pro_sup_r	wrist_flex_r	wrist_dev_r	arm_flex_l	arm_add_l	arm_rot_l	elbow_flex_l	pro_sup_l	wrist_flex_l	wrist_dev_l
      4.60299999999999980000	     -3.85492197891815240000	      5.20772327221443730000	      1.77310815887286920000	      0.96795232645090945000	      0.97701125620846030000	     -0.32289059726210712000	     27.78573625135611600000	     -7.69414864967757770000	     -1.35936734141420490000	    -82.18915337097389800000	      4.32744074960953820000	      0.00000000000015459054	      0.00000000000012427223	     13.10874129893258600000	     12.00435388840087300000	     -0.45054448945520253000	    -36.43323291955255200000	     22.34637355647695900000	      0.00000000000001608736	      0.00000000000002973360	    -10.11404187112262900000	     -7.28368874647729750000	     -3.58285797196474220000	    -25.34616981084379700000	    -19.77976617504322800000	     -0.48416313617655304000	     92.54880934467843200000	     86.47481947473002600000	     -0.00000000000002171939	      0.00000000000008053259	     -7.69462037429212930000	    -29.50184156724418800000	      3.49278567827823760000	    109.47166180258731000000	    116.40133987109741000000	     -0.00000000000001711316	     -0.00000000000002606502
      4.60400000000000010000	     -3.88297828022718510000	      5.16414147779277850000	      1.83571577990314160000	      0.96789861053474802000	      0.97740238026443194000	     -0.32295306374180816000	     27.95800096797885800000	     -7.66638735108474640000	     -1.43267058112381760000	    -82.03030063281312300000	      4.39976122305179910000	      0.00000000000015485591	      0.00000000000012463936	     12.89550402549308200000	     11.96885245099702500000	     -0.35352004651174485000	    -36.23258112912838400000	     22.31047837366866200000	      0.00000000000001620061	      0.00000000000002962845	    -10.09306894723986400000	     -7.22318504029612460000	     -3.72965697333828230000	    -25.47427185956468100000	    -19.75244577956753700000	     -0.46647320389856839000	     92.55560243099817800000	     86.38560512191367000000	     -0.00000000000002175189	      0.00000000000008073968	     -7.60734172822410230000	    -29.53244830420537800000	      3.51998165056472740000	    109.58452984007357000000	    116.34859614833205000000	     -0.00000000000001714289	     -0.00000000000002608351
      4.60499999999999950000	     -3.91167208338143890000	      5.11905014860157600000	      1.89829542064451910000	      0.96784745889495238000	      0.97779758112479365000	     -0.32301574935383631000	     28.12868079599626000000	     -7.63783563911637130000	     -1.50757015051494240000	    -81.86560503682193300000	      4.46948602063273630000	      0.00000000000015511931	      0.00000000000012500647	     12.68217411468938100000	     11.93126273954380800000	     -0.25678317701204534000	    -36.02991578097416400000	     22.27109615949346400000	      0.00000000000001630616	      0.00000000000002954628	    -10.07093275274916500000	     -7.16082141608689590000	     -3.87546024587358180000	    -25.60361693350221300000	    -19.72564224542161800000	     -0.45051942099531334000	     92.56569281822884000000	     86.29640659801310700000	     -0.00000000000002178355	      0.00000000000008094753	     -7.52187048623086250000	    -29.56197460646837900000	      3.54688585142231320000	    109.69886010360756000000	    116.29320586835060000000	     -0.00000000000001717276	     -0.00000000000002610344
      4.60599999999999990000	     -3.94097530215333470000	      5.07247766148281710000	      1.96078460329797610000	      0.96779880814899300000	      0.97819681803362868000	     -0.32307854439548367000	     28.29774990828830600000	     -7.60848656113691300000	     -1.58399600428586830000	    -81.69508551918070800000	      4.53663650642491060000	      0.00000000000015538038	      0.00000000000012537313	     12.46881476318143800000	     11.89159531310041700000	     -0.16041763037709938000	    -35.82536401208309200000	     22.22814632186807400000	      0.00000000000001641310	      0.00000000000002946237	    -10.04766946115282700000	     -7.09664557172122110000	     -4.02020577236545580000	    -25.73414162931865000000	    -19.69933903749840500000	     -0.43630055032698362000	     92.57893842273271900000	     86.20742142646149400000	     -0.00000000000002181563	      0.00000000000008115657	     -7.43817504551831020000	    -29.59040686688025100000	      3.57347621456768620000	    109.81460015289424000000	    116.23498223092497000000	     -0.00000000000001720233	     -0.00000000000002612860
